<?xml version="1.0" standalone="no"?>
<!DOCTYPE svg PUBLIC "-//W3C//DTD SVG 20010904//EN"
 "http://www.w3.org/TR/2001/REC-SVG-20010904/DTD/svg10.dtd">
<svg version="1.0" xmlns="http://www.w3.org/2000/svg"
 width="234.000000pt" height="234.000000pt" viewBox="0 0 234.000000 234.000000"
 preserveAspectRatio="xMidYMid meet">
<metadata>
Created by potrace 1.14, written by Peter Selinger 2001-2017
</metadata>
<g transform="translate(0.000000,234.000000) scale(0.100000,-0.100000)"
fill="#000000" stroke="none">
<path d="M215 1666 c-25 -7 -45 -21 -53 -36 -39 -74 42 -239 189 -388 45 -46
60 -70 26 -42 -21 17 -102 76 -117 85 -13 8 -13 7 0 -11 7 -10 19 -23 25 -29
16 -15 55 -72 55 -81 0 -4 -11 3 -25 16 l-25 23 0 -21 c0 -12 -9 -30 -20 -39
-11 -10 -20 -20 -20 -23 0 -3 74 -5 165 -5 91 0 165 2 165 5 0 3 -16 16 -35
29 -47 32 -130 111 -143 137 -17 33 -2 170 20 185 5 3 53 4 106 2 90 -4 121 1
60 9 -15 2 -30 6 -33 10 -5 4 94 38 130 44 6 1 12 3 15 4 29 11 132 29 210 36
119 11 203 5 295 -22 28 -7 53 -14 57 -15 4 0 31 -10 60 -21 29 -11 70 -24 91
-30 20 -6 37 -14 37 -18 0 -8 3 -8 80 -14 30 -3 81 -7 113 -10 31 -3 57 -1 57
4 0 10 -59 24 -67 16 -4 -3 -12 -1 -19 4 -6 6 -16 10 -20 8 -21 -5 -110 15
-143 33 -20 10 -39 19 -42 19 -4 0 -24 8 -45 17 -22 9 -43 18 -49 19 -5 1 -29
9 -52 18 -24 8 -43 13 -43 11 0 -3 -11 0 -24 5 -73 27 -276 30 -396 5 -14 -3
-36 -7 -50 -10 -58 -11 -72 -15 -147 -36 -43 -12 -82 -22 -88 -23 -5 -1 -14
-4 -20 -8 -13 -7 -74 -21 -100 -22 -37 -2 -40 -12 -34 -93 3 -43 4 -80 3 -81
-3 -5 -43 71 -66 123 -32 76 -14 152 37 156 42 3 53 2 90 -10 22 -8 48 -20 58
-29 22 -20 22 -11 0 14 -29 31 -134 81 -183 87 -25 2 -63 -1 -85 -7z"/>
<path d="M1039 1566 c-2 -2 -35 -7 -74 -10 -70 -6 -100 -10 -165 -21 -19 -4
-41 -7 -47 -7 -18 -2 -16 -28 2 -28 8 0 15 -3 15 -7 0 -5 10 -8 23 -9 20 -1
41 -4 107 -19 14 -3 36 -9 50 -12 23 -4 298 -7 410 -3 l45 2 -55 26 c-30 15
-57 27 -60 28 -3 0 -18 6 -33 12 -16 7 -34 12 -41 12 -7 0 -16 3 -20 7 -7 8
-18 10 -91 19 -27 4 -53 8 -56 10 -3 2 -8 2 -10 0z"/>
<path d="M763 1455 c20 -53 46 -94 85 -135 48 -49 118 -93 134 -84 4 3 8 1 8
-5 0 -5 8 -10 18 -10 9 0 37 -2 62 -4 25 -2 54 0 65 4 15 6 9 8 -22 10 -64 2
-74 4 -120 18 -72 24 -133 77 -216 191 -10 14 -16 21 -14 15z"/>
<path d="M1710 1449 c0 -5 1 -9 3 -9 60 -10 77 -10 77 -2 0 5 -6 9 -12 9 -7 0
-25 3 -40 6 -16 3 -28 1 -28 -4z"/>
<path d="M420 1439 c0 -5 7 -12 15 -15 22 -9 18 -22 -7 -26 -12 -2 -23 -8 -25
-15 -6 -17 86 -10 97 8 5 8 6 17 2 20 -15 15 -82 37 -82 28z"/>
<path d="M835 1410 c9 -15 66 -39 110 -46 45 -8 217 -9 231 -2 8 4 30 3 37 -1
1 -1 22 -4 47 -6 66 -5 77 -9 111 -34 21 -16 28 -26 19 -31 -8 -5 -7 -9 5 -14
22 -8 22 -8 29 11 4 10 5 15 1 12 -3 -3 -22 10 -43 30 -37 35 -54 42 -114 44
-16 1 -28 4 -28 7 0 7 -77 3 -97 -5 -7 -2 -15 0 -18 5 -4 6 -14 7 -23 2 -21
-10 -201 -3 -212 8 -11 11 -61 30 -55 20z"/>
<path d="M1876 1412 c-6 -10 44 -41 75 -47 11 -2 29 -7 40 -10 32 -10 21 3
-23 29 -53 30 -85 40 -92 28z"/>
<path d="M670 1372 c-39 -6 -85 -47 -97 -86 -22 -72 17 -144 90 -164 49 -14
114 18 141 68 46 87 -35 197 -134 182z m66 -37 c11 -3 28 -19 37 -35 45 -76
-9 -160 -97 -150 -50 5 -96 72 -81 119 9 29 45 72 56 66 5 -4 9 -2 9 3 0 9 42
8 76 -3z"/>
<path d="M654 1319 c-23 -12 -44 -49 -44 -78 0 -28 36 -68 67 -74 78 -15 122
61 77 136 -12 21 -71 31 -100 16z"/>
<path d="M1755 1367 c-51 -17 -85 -65 -85 -120 0 -115 131 -170 212 -90 92 92
-3 251 -127 210z m75 -31 c37 -13 52 -33 57 -80 5 -37 1 -48 -23 -75 -34 -37
-76 -45 -117 -22 -73 40 -69 144 5 176 33 13 39 14 78 1z"/>
<path d="M1754 1318 c-24 -11 -44 -48 -44 -79 0 -11 13 -33 29 -49 63 -64 159
-1 131 85 -16 47 -68 67 -116 43z"/>
<path d="M2011 1336 c-17 -20 -26 -112 -12 -120 7 -5 9 -1 5 8 -3 9 -3 24 1
34 5 9 7 25 6 34 -1 10 3 26 9 38 12 23 8 26 -9 6z"/>
<path d="M1463 1287 c0 -8 16 -13 46 -12 42 0 46 -2 46 -25 0 -21 -4 -25 -30
-23 -16 0 -53 2 -81 4 -27 1 -56 -1 -62 -5 -7 -4 -12 -3 -12 2 0 5 -13 9 -29
8 -32 -1 -32 -10 0 -12 10 -1 20 -3 22 -4 2 -2 81 -7 146 -9 l34 -1 -21 -23
c-19 -20 -31 -23 -87 -22 -36 1 -65 -1 -65 -4 0 -3 33 -7 74 -9 70 -2 76 0 98
26 13 15 32 29 43 30 26 5 33 12 12 12 -13 0 -15 6 -11 29 7 32 -7 41 -61 37
-16 -1 -37 2 -46 6 -10 4 -16 2 -16 -5z"/>
<path d="M860 1263 c0 -14 65 -101 94 -125 46 -37 111 -61 177 -66 57 -4 76 0
121 21 29 13 63 34 74 45 12 12 25 18 28 15 3 -4 6 -1 6 5 0 17 -27 15 -37 -2
-4 -8 -32 -25 -61 -39 -43 -21 -66 -25 -120 -23 -109 3 -184 49 -267 161 -8
11 -15 15 -15 8z"/>
<path d="M921 1222 c20 -31 93 -71 139 -76 l45 -5 -40 18 c-22 10 -43 16 -47
14 -5 -2 -8 1 -8 6 0 6 -5 11 -12 11 -6 0 -26 11 -44 25 -39 30 -48 32 -33 7z"/>
<path d="M1295 1160 c3 -5 8 -10 11 -10 2 0 4 5 4 10 0 6 -5 10 -11 10 -5 0
-7 -4 -4 -10z"/>
<path d="M250 938 c0 -81 2 -88 20 -88 16 0 20 7 20 34 0 30 3 34 21 31 11 -2
34 -18 51 -34 19 -19 40 -30 55 -29 12 1 23 4 23 6 0 2 -14 15 -32 30 l-31 27
24 5 c19 5 25 13 27 44 2 21 -1 43 -7 49 -6 6 -47 11 -91 11 l-80 1 0 -87z
m140 33 c0 -13 -9 -20 -27 -22 -48 -7 -73 1 -73 22 0 16 7 19 50 19 42 0 50
-3 50 -19z"/>
<path d="M528 1022 c-21 -4 -19 1 -23 -77 -5 -88 -1 -92 97 -92 46 0 89 4 96
10 15 12 17 143 1 153 -12 7 -142 12 -171 6z m142 -83 c0 -44 -2 -49 -22 -50
-13 0 -40 -1 -60 -3 -22 -2 -38 2 -39 8 -11 106 -12 104 72 98 l49 -4 0 -49z"/>
<path d="M811 962 c-63 -109 -62 -108 -40 -109 10 -1 24 7 29 18 15 26 103 27
122 2 7 -10 24 -20 37 -21 23 -4 23 -3 -10 55 -18 32 -40 70 -48 85 -28 49
-47 43 -90 -30z m79 -34 c0 -5 -14 -8 -30 -8 l-31 0 17 32 16 32 14 -25 c7
-13 13 -27 14 -31z"/>
<path d="M1047 1022 c-16 -3 -17 -13 -15 -85 l3 -82 73 -1 c44 0 80 5 91 13
44 30 43 118 -2 142 -22 12 -115 20 -150 13z m129 -40 c20 -13 23 -51 6 -71
-17 -20 -34 -24 -84 -22 -27 1 -28 3 -28 51 l0 50 48 0 c26 0 52 -4 58 -8z"/>
<path d="M1529 1017 c-1 -7 -2 -36 -3 -65 -1 -57 -13 -72 -52 -64 -17 3 -24
11 -24 27 0 18 -4 22 -20 18 -23 -6 -28 -54 -7 -70 15 -12 106 -14 127 -3 11
6 15 28 16 83 0 65 -2 76 -18 80 -10 3 -19 0 -19 -6z"/>
<path d="M1644 1021 c-2 -2 -4 -41 -4 -86 l0 -82 82 1 c69 1 83 4 86 18 3 14
-6 16 -60 15 -57 -2 -63 0 -66 20 -3 18 1 21 32 18 20 -2 38 1 42 6 9 15 -2
21 -41 23 -26 1 -35 5 -35 19 0 14 10 17 65 17 51 0 65 3 65 15 0 8 -3 15 -7
16 -32 3 -156 3 -159 0z"/>
<path d="M1849 1014 c-13 -16 0 -24 38 -24 l33 0 0 -68 c0 -61 2 -68 20 -69
22 -2 23 -1 22 80 l-1 57 40 0 c32 0 40 3 37 17 -2 13 -18 16 -91 17 -53 1
-92 -3 -98 -10z"/>
<path d="M1040 751 c0 -6 5 -13 10 -16 6 -3 10 1 10 9 0 9 -4 16 -10 16 -5 0
-10 -4 -10 -9z"/>
<path d="M1419 758 c-1 -2 -2 -18 -4 -35 -2 -23 2 -33 11 -33 9 0 14 12 14 35
0 19 -4 35 -10 35 -5 0 -10 -1 -11 -2z"/>
<path d="M848 722 c-6 -42 4 -67 30 -68 14 -1 22 4 22 14 0 13 2 13 18 -1 25
-23 27 -23 44 -9 13 10 16 28 9 65 0 4 -12 7 -25 7 -17 0 -29 -9 -38 -26 -19
-38 -33 -35 -36 9 -4 43 -18 49 -24 9z"/>
<path d="M996 732 c-12 -36 7 -84 29 -76 11 5 12 10 2 25 -9 14 -9 21 0 30 9
9 8 15 -2 25 -18 18 -23 18 -29 -4z"/>
<path d="M1220 715 c0 -32 -2 -36 -20 -30 -24 8 -25 2 -4 -19 26 -26 52 -5 50
41 -3 49 -26 57 -26 8z"/>
<path d="M1356 742 c-10 -16 -2 -72 11 -83 7 -6 13 -10 14 -8 8 34 5 89 -7 93
-7 3 -15 2 -18 -2z"/>
<path d="M1074 719 c-4 -7 4 -20 17 -30 l24 -18 -25 6 c-23 5 -24 5 -9 -12 14
-14 21 -15 38 -6 24 13 28 31 7 31 -8 0 -18 4 -21 10 -3 6 1 7 9 4 11 -4 16 0
16 10 0 19 -45 22 -56 5z"/>
<path d="M1272 717 c-24 -28 8 -74 42 -61 35 13 24 74 -14 74 -10 0 -22 -6
-28 -13z"/>
<path d="M1420 664 c0 -8 5 -12 10 -9 6 3 10 10 10 16 0 5 -4 9 -10 9 -5 0
-10 -7 -10 -16z"/>
</g>
</svg>
